# xmcd
#
# Track frame offsets:
#	150
#	18578
#	35548
#	55502
#	72079
#	102303
#	116089
#	128863
#	138654
#	151541
#	162565
#	178641
#	189946
#	207751
#	217666
#
# Disc length: 3056 seconds
#
# Revision: 2
# Processed by: cddbd v1.5.2PL0 Copyright (c) Steve Scherf et al.
# Submitted via: EZCDAudioConverter 7.0.0.1
#
DISCID=c80bee0f
DTITLE=Compact Disc Club - The Blues Story
DYEAR=2000
DGENRE=Blues
TTITLE0=Etta James - Damn Your Eyes
TTITLE1=The Robert Cray Band - Don't Be Afraid Of The Dark
TTITLE2=Otis Spann - What Will Become Of Me?
TTITLE3=Johnny Copeland - Jambalaya (On The Bayou)
TTITLE4=John Mayall - Have You Ever Loved A Woman?
TTITLE5=Albert Collins - Frosty
TTITLE6=Bo Diddley and Muddy Waters and Little Walter - I Just Want To Make Love T
TTITLE6=o You
TTITLE7=John Lee Hoker - Dimples
TTITLE8=Muddy Waters - Got My Mojo Working
TTITLE9=Howlin' Wolf - The Redrooster
TTITLE10=Luther Allison - Dust In My Broom
TTITLE11=Elmore James - Shake Your Money Maker
TTITLE12=Taste - Born On The Wrong Side Of Town
TTITLE13=Chris Farlowe - My Girl Josephine
TTITLE14=Sonny Boy Williamson - Don't Start Me To Talking
EXTD=
EXTT0=
EXTT1=
EXTT2=
EXTT3=
EXTT4=
EXTT5=
EXTT6=
EXTT7=
EXTT8=
EXTT9=
EXTT10=
EXTT11=
EXTT12=
EXTT13=
EXTT14=
PLAYORDER=
